REM GENRE Rock
REM DATE 1996
REM DISCID 25038204
REM COMMENT "ExactAudioCopy v0.99pb4"
CATALOG 0401035271001
PERFORMER "Sting"
TITLE "You Still Touch Me"
FILE "You Still Touch Me\01 - You Still Touch Me (LP Version).wav" WAVE
  TRACK 01 AUDIO
    TITLE "You Still Touch Me (LP Version)"
    PERFORMER "Sting"
    ISRC 1043D7101144
    INDEX 01 00:00:00
  TRACK 02 AUDIO
    TITLE "Lullaby To An Anxious Child"
    PERFORMER "Sting"
    ISRC 1043D7102144
    INDEX 00 03:47:22
FILE "You Still Touch Me\02 - Lullaby To An Anxious Child.wav" WAVE
    INDEX 01 00:00:00
  TRACK 03 AUDIO
    TITLE "The Pirate's Bride"
    PERFORMER "Sting"
    ISRC 1043D7102144
    INDEX 00 01:55:13
FILE "You Still Touch Me\03 - The Pirate's Bride.wav" WAVE
    INDEX 01 00:00:00
  TRACK 04 AUDIO
    TITLE "Twenty-five to Midnight"
    PERFORMER "Sting"
    ISRC 1043D7101144
    INDEX 00 05:02:65
FILE "You Still Touch Me\04 - Twenty-five to Midnight.wav" WAVE
    INDEX 01 00:00:00
